<?xml version="1.0" standalone="no"?><svg xmlns="http://www.w3.org/2000/svg" viewBox="0 0 1440 320"><path fill="#1d074b" fill-opacity="1" d="M0,224L40,213.3C80,203,160,181,240,165.3C320,149,400,139,480,133.3C560,128,640,128,720,160C800,192,880,256,960,256C1040,256,1120,192,1200,149.3C1280,107,1360,85,1400,74.7L1440,64L1440,320L1400,320C1360,320,1280,320,1200,320C1120,320,1040,320,960,320C880,320,800,320,720,320C640,320,560,320,480,320C400,320,320,320,240,320C160,320,80,320,40,320L0,320Z"></path></svg>